<svg preserveAspectRatio="none" overflow="visible" style="display: block;" width="40.7284" height="15.201" viewBox="0 0 40.7284 15.201" fill="none" xmlns="http://www.w3.org/2000/svg">
<g id="Vector">
<path d="M4.13975 6.29343C4.28516 7.60235 5.55368 9.29796 6.36666 9.79283L3.71568 11.0653C3.22079 10.7472 2.04012 9.96249 1.27662 9.36865C0.322239 8.62635 -2.3018 0.930547 5.83642 0.142994C12.4111 -0.493247 16.0872 7.24781 17.1829 11.4895L13.6678 14.4774C13.4872 14.9143 13.1858 15.0949 12.9412 15.0949L13.6678 14.4774C14.0353 13.5883 13.9028 11.6382 11.7748 7.9901C8.06334 1.62759 3.9277 4.38469 4.13975 6.29343Z" fill="#D9D9D9"/>
<path d="M4.13975 6.29343C4.28516 7.60235 5.55368 9.29796 6.36666 9.79283L3.71568 11.0653C3.22079 10.7472 2.04012 9.96249 1.27662 9.36865C0.322239 8.62635 -2.3018 0.930547 5.83642 0.142994C12.4111 -0.493247 16.0872 7.24781 17.1829 11.4895L13.6678 14.4774C13.4872 14.9143 13.1858 15.0949 12.9412 15.0949L13.6678 14.4774C14.0353 13.5883 13.9028 11.6382 11.7748 7.9901C8.06334 1.62759 3.9277 4.38469 4.13975 6.29343Z" fill="#AE4A2C"/>
<path d="M36.5887 6.29343C36.4433 7.60235 35.1747 9.29796 34.3618 9.79283L37.0127 11.0653C37.5076 10.7472 38.6883 9.96249 39.4518 9.36865C40.4062 8.62635 43.0302 0.930547 34.892 0.142994C28.3174 -0.493247 24.6413 7.24781 23.5455 11.4895L27.0607 14.4774C27.2413 14.9143 27.5426 15.0949 27.7872 15.0949L27.0607 14.4774C26.6931 13.5883 26.8256 11.6382 28.9536 7.9901C32.6651 1.62759 36.8007 4.38469 36.5887 6.29343Z" fill="#D9D9D9"/>
<path d="M36.5887 6.29343C36.4433 7.60235 35.1747 9.29796 34.3618 9.79283L37.0127 11.0653C37.5076 10.7472 38.6883 9.96249 39.4518 9.36865C40.4062 8.62635 43.0302 0.930547 34.892 0.142994C28.3174 -0.493247 24.6413 7.24781 23.5455 11.4895L27.0607 14.4774C27.2413 14.9143 27.5426 15.0949 27.7872 15.0949L27.0607 14.4774C26.6931 13.5883 26.8256 11.6382 28.9536 7.9901C32.6651 1.62759 36.8007 4.38469 36.5887 6.29343Z" fill="#AE4A2C"/>
<path d="M13.6678 14.4774C14.0353 13.5883 13.9028 11.6382 11.7748 7.9901C8.06334 1.62759 3.9277 4.38469 4.13975 6.29343C4.28516 7.60235 5.55368 9.29796 6.36666 9.79283L3.71568 11.0653C3.22079 10.7472 2.04012 9.96249 1.27662 9.36865C0.322239 8.62635 -2.3018 0.930547 5.83642 0.142994C12.4111 -0.493247 16.0872 7.24781 17.1829 11.4895L13.6678 14.4774ZM13.6678 14.4774C13.4872 14.9143 13.1858 15.0949 12.9412 15.0949L13.6678 14.4774ZM27.0607 14.4774C26.6931 13.5883 26.8256 11.6382 28.9536 7.9901C32.6651 1.62759 36.8007 4.38469 36.5887 6.29343C36.4433 7.60235 35.1747 9.29796 34.3618 9.79283L37.0127 11.0653C37.5076 10.7472 38.6883 9.96249 39.4518 9.36865C40.4062 8.62635 43.0302 0.930547 34.892 0.142994C28.3174 -0.493247 24.6413 7.24781 23.5455 11.4895L27.0607 14.4774ZM27.0607 14.4774C27.2413 14.9143 27.5426 15.0949 27.7872 15.0949L27.0607 14.4774Z" stroke="#45120A" stroke-width="0.212084"/>
</g>
</svg>
