<svg width="199" height="156" viewBox="0 0 199 156" fill="none" xmlns="http://www.w3.org/2000/svg">
<path d="M1.53606 61.152V59.136H6.81606V2.88H1.53606V0.864006H48.9601V2.88H43.5841V59.136H48.9601V61.152H27.3601V59.136H32.6401V2.88H17.7601V59.136H23.0401V61.152H1.53606ZM54.4958 61.152V59.136H59.3918V19.296C59.3918 17.312 59.3918 15.904 59.3918 15.072C59.3918 14.176 59.4238 13.536 59.4878 13.152C59.7438 11.296 60.6718 9.53601 62.2718 7.87201C63.2958 6.78401 64.5438 5.79201 66.0158 4.89601C67.5518 4.00001 69.1838 3.23201 70.9118 2.59201C75.3278 0.864006 79.6798 5.72205e-06 83.9678 5.72205e-06C88.3198 5.72205e-06 92.0638 1.18401 95.1998 3.55201C98.3998 5.984 99.9998 9.632 99.9998 14.496C99.9998 17.824 99.0398 20.832 97.1198 23.52C95.1998 26.144 92.5758 27.456 89.2478 27.456C87.7118 27.456 86.1758 27.2 84.6398 26.688C83.1038 26.112 81.7598 25.6 80.6078 25.152L79.0718 24.768C78.8798 24.832 78.7198 24.928 78.5918 25.056C78.5278 25.12 78.4638 25.184 78.3998 25.248C77.6318 26.016 76.9278 26.848 76.2878 27.744C75.6478 28.576 74.9758 29.408 74.2718 30.24L71.6798 33.504C71.1038 34.208 70.7518 35.008 70.6238 35.904C70.5598 36.352 70.4958 37.056 70.4318 38.016C70.4318 38.976 70.4318 40.192 70.4318 41.664V59.136H75.0398V61.152H54.4958ZM70.4318 14.784V29.568C70.5598 30.144 70.7198 30.432 70.9118 30.432C71.0398 30.432 71.1998 30.368 71.3918 30.24C71.5838 30.112 71.9358 29.792 72.4478 29.28C73.4078 28.064 74.3678 26.848 75.3278 25.632C76.3518 24.352 77.3438 23.104 78.3038 21.888C78.6238 21.504 78.9118 21.312 79.1678 21.312L81.2798 21.792C82.5598 22.112 83.3918 22.336 83.7758 22.464C84.2238 22.528 84.6398 22.56 85.0238 22.56C87.1998 22.56 88.6078 21.472 89.2478 19.296C90.0158 17.056 90.3998 14.944 90.3998 12.96C90.3998 8.92801 89.4398 6.20801 87.5198 4.80001C85.5998 3.26401 83.5838 2.49601 81.4718 2.49601C79.2318 2.49601 77.1518 2.94401 75.2318 3.84001C73.3758 4.672 72.1598 5.472 71.5838 6.24001C71.0078 6.944 70.6558 7.744 70.5278 8.64C70.4638 9.08801 70.4318 9.82401 70.4318 10.848C70.4318 11.872 70.4318 13.184 70.4318 14.784ZM104.661 61.152V59.136H109.941V2.88H104.661V0.864006H126.165V2.88H120.885V29.568L135.765 21.312V2.88H130.485V0.864006H152.085V2.88H146.709V59.136H152.085V61.152H130.485V59.136H135.765V23.616L120.885 31.872V59.136H126.165V61.152H104.661ZM180.181 39.36C180.053 39.744 179.861 40.384 179.605 41.28C179.541 41.536 179.413 41.888 179.221 42.336L178.933 42.912H158.485L157.525 42.048C157.589 41.856 157.685 41.536 157.813 41.088C157.877 40.704 157.941 40.416 158.005 40.224C158.069 40.032 158.197 39.712 158.389 39.264C158.517 38.88 158.613 38.592 158.677 38.4H179.125L180.181 39.36ZM34.0801 84.88H29.4721V82.864H49.9201V84.88H44.9281V141.136H47.8081C49.2801 141.136 50.1441 141.168 50.4001 141.232C50.7201 141.296 50.8801 141.552 50.8801 142V142.096C50.8801 142.288 50.5921 142.64 50.0161 143.152C49.4401 143.664 48.4161 145.136 46.9441 147.568C46.0481 149.296 45.4081 150.928 45.0241 152.464C44.7681 153.936 44.5761 154.832 44.4481 155.152C44.3841 155.472 44.2881 155.632 44.1601 155.632H44.0641C43.3601 155.632 42.4641 154.224 41.3761 151.408C40.8641 150 40.4481 148.848 40.1281 147.952C39.8081 147.056 39.5841 146.416 39.4561 146.032C39.2641 145.328 39.0721 144.688 38.8801 144.112C38.6881 143.6 38.4321 143.312 38.1121 143.248L34.5601 143.152H12.1921C11.8081 144.56 11.4241 145.872 11.0401 147.088C10.6561 148.368 10.2081 149.84 9.69606 151.504C9.18406 153.232 8.76806 154.352 8.44806 154.864C8.19206 155.376 7.90406 155.632 7.58406 155.632C7.07206 155.632 6.62406 154.8 6.24006 153.136C5.85606 151.536 5.21606 149.712 4.32006 147.664C3.42406 145.616 2.49606 144.208 1.53606 143.44C0.640059 142.672 0.160059 142.256 0.0960587 142.192C0.0960587 142.064 0.0640587 141.936 5.8651e-05 141.808C5.8651e-05 141.36 1.02406 141.136 3.07206 141.136H9.69606C8.92806 139.664 8.28806 138.096 7.77606 136.432C7.26406 134.768 7.00806 133.136 7.00806 131.536C7.00806 128.336 7.84006 125.488 9.50406 122.992C11.2321 120.432 14.0481 117.68 17.9521 114.736C19.9361 113.264 21.7601 111.888 23.4241 110.608C25.0881 109.264 26.6241 108.016 28.0321 106.864C30.7841 104.496 32.1601 102.064 32.1601 99.568C32.1601 98.48 31.7121 97.936 30.8161 97.936C30.0481 97.936 29.6001 98.288 29.4721 98.992L28.9921 100.144C28.2241 101.872 26.8801 102.736 24.9601 102.736C23.5521 102.736 22.3041 102.192 21.2161 101.104C20.1281 100.016 19.5841 98.608 19.5841 96.88C19.5841 95.216 20.1601 93.68 21.3121 92.272C22.4641 90.864 23.9681 90.16 25.8241 90.16H26.3041C27.7121 90.16 28.8321 90.64 29.6641 91.6C30.5601 92.56 31.2641 93.52 31.7761 94.48C32.3521 95.44 32.8001 95.92 33.1201 95.92C33.4401 95.92 33.6641 95.792 33.7921 95.536C33.9841 95.28 34.0801 94.512 34.0801 93.232V84.88ZM22.7521 141.232H34.0801V104.464C34.0801 103.632 33.8561 103.216 33.4081 103.216C33.1521 103.216 32.7681 103.632 32.2561 104.464C31.8081 105.232 31.0401 106.32 29.9521 107.728C28.9281 109.072 27.1041 111.28 24.4801 114.352C21.8561 117.424 19.7121 120.368 18.0481 123.184C16.3841 126 15.5521 129.328 15.5521 133.168C15.5521 135.024 15.7761 136.688 16.2241 138.16C16.7361 139.632 17.2481 140.496 17.7601 140.752C18.3361 141.008 19.0721 141.168 19.9681 141.232C20.8641 141.232 21.7921 141.232 22.7521 141.232ZM81.5251 127.312C82.8051 128.016 84.3731 128.752 86.2291 129.52C88.1491 130.288 90.1011 131.056 92.0851 131.824C94.1331 132.528 95.9571 133.104 97.5571 133.552L96.9811 135.568C96.4051 135.376 95.7651 135.184 95.0611 134.992C94.4211 134.736 94.0371 134.608 93.9091 134.608C93.6531 134.608 93.3651 134.8 93.0451 135.184C92.7251 135.504 91.7651 136.624 90.1651 138.544C88.6291 140.4 86.1651 141.872 82.7731 142.96C79.3811 144.048 75.8611 144.592 72.2131 144.592C69.6531 144.592 67.6051 144.4 66.0691 144.016C64.5331 143.696 63.0291 143.248 61.5571 142.672C62.9011 141.648 63.8611 140.528 64.4371 139.312C65.0131 138.096 65.3011 136.88 65.3011 135.664C65.3011 134.512 65.0131 132.88 64.4371 130.768C63.9251 128.592 62.9011 125.776 61.3651 122.32C59.9571 118.736 58.8051 115.856 57.9091 113.68C57.0771 111.44 56.6611 108.56 56.6611 105.04C56.6611 99.792 58.3571 94.608 61.7491 89.488C65.1411 84.368 71.3811 81.808 80.4691 81.808C85.9091 81.808 90.0691 82.8 92.9491 84.784C95.8291 86.704 97.7811 89.392 98.8051 92.848L101.781 93.424L101.685 95.536L100.149 95.248C98.4851 94.992 97.0131 94.832 95.7331 94.768C94.5171 94.64 93.4931 94.576 92.6611 94.576C91.3171 94.576 90.0371 94.672 88.8211 94.864C87.6051 94.992 86.3571 95.184 85.0771 95.44L84.6931 93.328L88.4371 92.56C88.0531 89.36 87.1251 87.088 85.6531 85.744C84.2451 84.336 82.1651 83.632 79.4131 83.632C76.6611 83.632 73.8451 84.688 70.9651 86.8C68.1491 88.848 66.7411 92.752 66.7411 98.512C66.7411 100.944 66.9331 103.184 67.3171 105.232C67.6371 106.32 67.8931 107.344 68.0851 108.304C68.3411 109.264 68.5331 110.128 68.6611 110.896L69.0451 113.296C71.6051 109.84 74.1971 107.056 76.8211 104.944C79.5091 102.768 82.8051 101.68 86.7091 101.68C91.0611 101.68 94.2611 103.12 96.3091 106C98.3571 108.816 99.3811 113.36 99.3811 119.632H102.645V121.744H85.7491L85.8451 119.632H89.5891L89.8771 115.696C89.8771 112.752 89.2371 110.512 87.9571 108.976C86.7411 107.44 85.1411 106.672 83.1571 106.672C81.1731 106.672 79.3491 107.248 77.6851 108.4C76.0851 109.552 74.6771 110.736 73.4611 111.952L70.0051 115.888C69.7491 116.336 69.6211 116.848 69.6211 117.424L69.9091 119.632C70.0371 120.528 70.1651 121.712 70.2931 123.184C70.4211 124.656 70.4851 125.776 70.4851 126.544C70.4851 130.064 70.0691 132.912 69.2371 135.088C68.4691 137.264 67.3811 139.408 65.9731 141.52C66.9971 141.776 68.2131 141.904 69.6211 141.904C73.8451 141.904 77.2691 140.496 79.8931 137.68C82.5811 134.864 83.9251 132.848 83.9251 131.632C83.9251 131.376 83.5091 131.024 82.6771 130.576C81.9091 130.064 81.2371 129.648 80.6611 129.328L81.5251 127.312ZM102.947 143.152V141.136H108.035C107.075 139.856 106.275 138.608 105.635 137.392C104.995 136.176 104.675 134.672 104.675 132.88C104.675 130.64 105.507 128.048 107.171 125.104C108.835 122.224 112.099 118.064 116.963 112.624C121.763 107.12 125.155 102.736 127.139 99.472C129.187 96.08 130.211 92.4 130.211 88.432V84.88H124.931V82.864H146.051V84.88H141.155V141.136H146.051V143.152H124.931V141.136H130.211V98.128H129.731C129.219 99.344 128.771 100.368 128.387 101.2C128.067 101.968 127.779 102.576 127.523 103.024C127.075 103.856 126.275 105.36 125.123 107.536C124.035 109.712 122.307 113.136 119.939 117.808C118.723 120.112 117.763 122 117.059 123.472C116.419 124.88 116.003 125.84 115.811 126.352C115.491 127.376 115.203 128.368 114.947 129.328C114.755 130.224 114.659 131.184 114.659 132.208C114.659 134.448 115.171 136.496 116.195 138.352C117.219 140.144 118.563 141.2 120.227 141.52V143.152H102.947ZM176.963 127.312C178.243 128.016 179.811 128.752 181.667 129.52C183.587 130.288 185.539 131.056 187.523 131.824C189.571 132.528 191.395 133.104 192.995 133.552L192.419 135.568C191.843 135.376 191.203 135.184 190.499 134.992C189.859 134.736 189.475 134.608 189.347 134.608C189.091 134.608 188.803 134.8 188.483 135.184C188.163 135.504 187.203 136.624 185.603 138.544C184.067 140.4 181.603 141.872 178.211 142.96C174.819 144.048 171.299 144.592 167.651 144.592C165.091 144.592 163.043 144.4 161.507 144.016C159.971 143.696 158.467 143.248 156.995 142.672C158.339 141.648 159.299 140.528 159.875 139.312C160.451 138.096 160.739 136.88 160.739 135.664C160.739 134.512 160.451 132.88 159.875 130.768C159.363 128.592 158.339 125.776 156.803 122.32C155.395 118.736 154.243 115.856 153.347 113.68C152.515 111.44 152.099 108.56 152.099 105.04C152.099 99.792 153.795 94.608 157.187 89.488C160.579 84.368 166.819 81.808 175.907 81.808C181.347 81.808 185.507 82.8 188.387 84.784C191.267 86.704 193.219 89.392 194.243 92.848L197.219 93.424L197.123 95.536L195.587 95.248C193.923 94.992 192.451 94.832 191.171 94.768C189.955 94.64 188.931 94.576 188.099 94.576C186.755 94.576 185.475 94.672 184.259 94.864C183.043 94.992 181.795 95.184 180.515 95.44L180.131 93.328L183.875 92.56C183.491 89.36 182.563 87.088 181.091 85.744C179.683 84.336 177.603 83.632 174.851 83.632C172.099 83.632 169.283 84.688 166.403 86.8C163.587 88.848 162.179 92.752 162.179 98.512C162.179 100.944 162.371 103.184 162.755 105.232C163.075 106.32 163.331 107.344 163.523 108.304C163.779 109.264 163.971 110.128 164.099 110.896L164.483 113.296C167.043 109.84 169.635 107.056 172.259 104.944C174.947 102.768 178.243 101.68 182.147 101.68C186.499 101.68 189.699 103.12 191.747 106C193.795 108.816 194.819 113.36 194.819 119.632H198.083V121.744H181.187L181.283 119.632H185.027L185.315 115.696C185.315 112.752 184.675 110.512 183.395 108.976C182.179 107.44 180.579 106.672 178.595 106.672C176.611 106.672 174.787 107.248 173.123 108.4C171.523 109.552 170.115 110.736 168.899 111.952L165.443 115.888C165.187 116.336 165.059 116.848 165.059 117.424L165.347 119.632C165.475 120.528 165.603 121.712 165.731 123.184C165.859 124.656 165.923 125.776 165.923 126.544C165.923 130.064 165.507 132.912 164.675 135.088C163.907 137.264 162.819 139.408 161.411 141.52C162.435 141.776 163.651 141.904 165.059 141.904C169.283 141.904 172.707 140.496 175.331 137.68C178.019 134.864 179.363 132.848 179.363 131.632C179.363 131.376 178.947 131.024 178.115 130.576C177.347 130.064 176.675 129.648 176.099 129.328L176.963 127.312Z" fill="url(#paint0_linear_2_13)"/>
<defs>
<linearGradient id="paint0_linear_2_13" x1="134.56" y1="-10.848" x2="134.56" y2="201.152" gradientUnits="userSpaceOnUse">
<stop stop-color="#325D3C"/>
<stop offset="1" stop-color="#999999"/>
</linearGradient>
</defs>
</svg>
